<svg xmlns="http://www.w3.org/2000/svg" width="350" height="33.712" viewBox="0 0 92.604 8.92"><g aria-label="FORUMS" style="font-size:10.5833px;letter-spacing:0;word-spacing:0;stroke-width:.4"><path d="m34.715 73.574-.328.032-1.005-1.546-.339-.635 1.715.19 1.27.276.942-.275.254-.106h.338l.466.19h4.35l-.487 1.726.508 1.143.042.434-.74-.73-1.503-1.048.095-.149-1.768-.169h-1.767l.466 1.323h1.63l1.09-.36v-.074l.285 1.757v1.524l-1.587-.74-1.884-.297.19 1.407.614.752 1.45.889-1.63-.138-.158.212h-1.292l-.518-.212-2.413.265.55-1.07 1.25-1.026-.117-1.037.158-1.44zM47.257 71.605l.063-.486 1.492.285.71 1.1.275-.21 1.354 1.417.53 1.736-.255.54-.158.159-1.112 2.317-1.428.773-1.45.222-1.492-.286-.16.096-1.29-.572-.498-.444-1.153-2.498.222-2.212 1.746-1.587.762-.201.963-.53zm-.477.995.477.19-1.8.73.138 1.938.286 1.143 1.376 1.249-.212.412 1.746-2.773v-1.502zM53.829 73.606l-.402-.254-.985-1.027-.254-.71.17-.105h1.735l1.027.19h2.805l.38-.158 1.62.296h.942l.931 1.778-.307.498-1.905 1.566.931.275.519 1.969 1.63.889h-1.418l-.667.54-1.736-.413.223-.053-1.535-2.815-.381.37-1.26-.296.191 1.312.603.751 1.43.879-1.63-.138-.16.212h-1.29l-.52-.212-2.402.265.55-1.07 1.25-1.015-.117-1.027.159-1.44zm2.54-.784-.233-.01v2.212l1.81-.53.476.106.476-.878-1.111-.423.18-.138zM68.614 71.87l-.328.032 2.127-.138.317-.339 1.366.19 1.132.276-.804.699-1.112.645.138.19-.233.921.127 2.308v1.481l-1.672.89-.466.444-.91-.265h-.963l-2.021-.127.095-.19-1.037-2.392-.476-.614.465-1.429-.148-1.386-1.651-.752-.392-.804 2.022.18 1.926-.19-.159.37.17-.296 1.99.18-.752.75-.519.88-.38 1.957.274.942.921 1.662.572-.127 1.65-.212.107-1.556.296-1.979-.117-.688-.518-1.016zM73.302 71.87l.053-.37 1.185.19 1.366.106.772-.159 1.048.085.984 1.608-.296.424.688 1.312-.096-.571.583-1.313v-1.63l.433.202 2.107-.413.36.402.825-.17 1.947.244-.032-.222-1.979 1.852.276 1.122v3.037l1.81 1.09.126.244-.9-.074-1.11.465-1.376-.137-.413-.34-2.477.191 1.25-.687.92-1.059-.339-.794.138-.232-.233-.614.127-2.508-.138 1.418-1.016 1.555.244 1.09-.18.403-.19.529-.54 1.196-1.133-.148-.158-1.217-.688-.72v-1.672l-.593-1.63-.572-.36-.084-.688.286 2.043v1.83l-.202.477h-.105l1.206 1.249.53.72-1.461-.138-1.609-.138-.148.212h-1.27l.064-.423 1.788-1.27-.243-1.704.296-1.778-.116-.604-.582-1.016zM87.325 78.876l.106-.254-1.577.614.137-1.291-.232-1.418.127-.773 1.619 1.535.518.338 2.382.53 1.46-.91-1.175-.477-1.333.296-2.402-.836-1.048-2.286.783-2.37 1.82-.572.244-.053 2.138 1.175.18-.307 1.63-.466.052-.042-.254.773v2.307l-1.037-.783-1.8-.773-.772-.286-1.65.466 1.756.878.953.127 2.402.508 1.334 2.424-.847 1.45-1.397.751-.974.307-1.175-.434z" style="-inkscape-font-specification:a_LatinoTitulBr;stroke:#ccc" transform="translate(-17.041 -70.75)"/></g></svg>