<svg xmlns="http://www.w3.org/2000/svg" width="350" height="33.672" viewBox="0 0 92.604 8.909"><g aria-label="INTERVIJAS" style="font-size:10.5833px;letter-spacing:0;word-spacing:0;stroke-width:.4"><path d="m21.232 73.595-.233.042.106-.2-1.555-1.842.36-.021 2.232-.19H23.9l.826.539.328-.413-.55 1.006-.847.709-.254.56-.106.202.19 3.45.604.762 1.429.889-1.63-.138-.16.212h-1.29l-.519-.212-2.413.265.55-1.08 1.26-1.026-.116-1.027.158-1.44z" style="-inkscape-font-specification:a_LatinoTitulBr;stroke:#ccc" transform="translate(-17.062 -70.75)"/><path d="m25.56 71.87-.158-.455 1.492.508 2.191-.53.17.117.327-.074.466 1.238 1.482 1.27.17-.053.666 1.736.328-.995.18-1.291-1.651-1.408-.296-.433.264.2h3.217l1.07-.148-.466 1.143-.741.434-.064.942-.307 1.905.16-.084.147 1.81-.476 1.301-.709-.19h-1.418l-1.027-.487-.211-.71-.699-1.216-1.016-1.694-.254 1.037-.106 1.514 1.26 1.249.56.72-1.513-.138-1.65-.138-.16.212h-1.301l.063-.424 1.789-1.27-.244-1.703.297-1.778-.117-.604-.582-1.016z" style="-inkscape-font-specification:a_LatinoTitulBr;stroke:#ccc" transform="translate(-17.062 -70.75)"/><path d="m35.753 71.87-.403-.254 1.387.275 1.037-.275.317-.106h.36l.561.19h4.816l-.487 1.726.508 1.143.042.434-.667-.73-1.375-1.048-.942-.149.148.784-.476.613.465 1.154-.148 1.397 1.058 1.937.392-.021-1.503.18-1.873-.191-.36.37-.381-.296-1.662.18.614-.677 1.429-1.164-.381-1.8.275-.37v-1.64l-.2-.699-.858.265-.995.751-.614 1.175-.116-.91.159-1.334z" style="-inkscape-font-specification:a_LatinoTitulBr;stroke:#ccc" transform="translate(-17.062 -70.75)"/><path d="m43.912 71.87-.106-.053.434-.423 1.588.328h1.513l1.937-.307 1.344.508 1.99-.53.148.117.265-.074-.106 1.46.444 1.694-.042.042-1.715-1.196-.211-.328-1.471-.275-1.63-.106h-.286l-.233 1.82h1.81l1.587-.814-.486 1.534.508 1.08.042.38-1.376-.91-1.99.413.16 1.493 1.195-.17 2.17-.211 1.058-1.387.413-.212v-.074l.286 1.747v1.513l-.329.37-.455-.296-2.063.18H48.78l-1.64-.095-1.726-.138-.19.212h-1.387l.064-.423 1.788-1.25-.243-1.703.296-1.8-.116-.603-.582-1.016zM55.617 73.606l-.402-.254-.984-1.027-.254-.71.17-.105h1.735l1.027.19h2.804l.381-.158 1.62.296h.941l.932 1.778-.307.498-1.905 1.566.931.275.519 1.969 1.63.889h-1.419l-.666.54-1.736-.413.222-.053-1.534-2.815-.381.37-1.26-.296.19 1.312.604.751 1.429.879-1.63-.138-.159.212h-1.291l-.519-.212-2.402.265.55-1.07 1.25-1.015-.117-1.027.158-1.44zm2.54-.784-.232-.01v2.212l1.81-.53.476.106.476-.878-1.111-.423.18-.138zM68.37 78.061l.117-.106-.265-.772-1.672-2.075-.19-.698-.233-1.069-1.64-1.408-.297-.433.307.2h3.44l1.195-.148 1.376.18-1.048.71-.73.73.455 1.778.19-.096 1.144 1.63-.201-.635 1.058-1.47.487-1.43-1.45-.666-.328-.773 2.201.18 2.138-.19-.148.37.2-.296-1.153 1.534-.55 1.08-.243 1.354-.805.858.127.55-.476.974 1.048 1.026-1.143.265-1.44-.286-1.153-.074-.815.233-.487-.286zM76.71 73.595l-.233.042.106-.2-1.556-1.842.36-.021 2.233-.19h1.757l.825.539.328-.413-.55 1.006-.847.709-.254.56-.105.202.19 3.45.603.762 1.43.889-1.63-.138-.16.212h-1.29l-.52-.212-2.412.265.55-1.08 1.26-1.026-.117-1.027.159-1.44zM81.091 75.997l.074-.37h1.482v1.037l1.027 1.228.264-1.789.466-1.545-.148-1.492-1.662-.752-.391-.804 2.074.18 1.979-.19-.148.37.17-.296 2.042.18-.815.75-.625.88-.38 1.216.275.678v1.333l-.55 1.429-1.006 1.27H83.45l-1.81-.815-.645-.603v-1.28zM90.743 71.87l-.402-.254.942.275.381-.275.392-.106h2.423l1.567.19-1.016 1.408.91 1.387v.889l.836.846.582.858-.01.148 1.439 2.106-.688-.148-1.63-.17h-2.392l-.667-.211-.476-.043.498-.148.857-1.206.074-.328-.688-.191-2.265.37-.307.212 1.07 1.111.454.635-1.354-.137-1.535-.138-.127.212h-1.196v-.423l1.524-1.27.339-1.588 1.005-1.64.222-.53.477-.984zm3.25 3.715.02-.032-.74-1.535-.476-.423-.678 1.863.19.465zM100.861 78.876l.106-.254-1.577.614.138-1.291-.233-1.418.127-.773 1.619 1.535.519.338 2.38.53 1.461-.91-1.175-.477-1.333.296-2.402-.836-1.048-2.286.783-2.37 1.82-.572.244-.053 2.138 1.175.18-.307 1.63-.466.052-.042-.254.773v2.307L105 73.606l-1.8-.773-.772-.286-1.65.466 1.756.878.953.127 2.402.508 1.334 2.424-.847 1.45-1.397.751-.974.307-1.175-.434z" style="-inkscape-font-specification:a_LatinoTitulBr;stroke:#ccc" transform="translate(-17.062 -70.75)"/></g></svg>