<svg xmlns="http://www.w3.org/2000/svg" width="350" height="32.232" viewBox="0 0 92.604 8.528"><g aria-label="JAUNUMI" style="font-size:10.5833px;letter-spacing:0;word-spacing:0;stroke-width:.4"><path d="m30.292 59.519.074-.37h1.482v1.037l1.026 1.227.265-1.788.465-1.546-.148-1.492-1.661-.751-.392-.804 2.074.18 1.98-.191-.149.37.17-.296 2.042.18-.815.751-.624.879-.381 1.217.275.677v1.334l-.55 1.428-1.006 1.27h-1.767l-1.81-.815-.645-.603v-1.28zM39.944 55.391l-.402-.254.942.276.38-.276.392-.105h2.424l1.566.19-1.016 1.408.91 1.386v.889l.836.847.582.857-.01.148 1.44 2.106-.689-.148-1.63-.17h-2.391l-.667-.211-.476-.042.497-.149.857-1.206.074-.328-.688-.19-2.264.37-.307.211 1.069 1.112.455.635-1.355-.138-1.535-.137-.127.211h-1.195v-.423l1.524-1.27.338-1.588 1.006-1.64.222-.53.476-.983zm3.249 3.715.021-.032-.74-1.534-.477-.424-.677 1.863.19.466zM54.157 55.391l-.328.032 2.127-.137.318-.34 1.365.191 1.133.276-.805.698-1.111.646.138.19-.233.92.127 2.308v1.482l-1.672.889-.466.444-.91-.264h-.963l-2.022-.127.096-.19-1.038-2.393-.476-.614.466-1.428-.148-1.387-1.651-.751-.392-.804 2.021.18 1.927-.191-.16.37.17-.296 1.99.18-.752.751-.518.879-.381 1.958.275.942.92 1.661.572-.127 1.651-.212.106-1.555.296-1.98-.116-.687-.519-1.016z" style="-inkscape-font-specification:a_LatinoTitulBr;stroke:#ccc" transform="translate(-17.724 -54.662)"/><path d="m58.846 55.391-.16-.455 1.493.508 2.19-.529.17.117.328-.075.466 1.239 1.482 1.27.169-.053.667 1.735.328-.994.18-1.292-1.651-1.407-.297-.434.265.201h3.217l1.07-.148-.466 1.143-.741.434-.064.942-.307 1.905.16-.085.147 1.81-.476 1.301-.71-.19H64.89l-1.027-.487-.212-.709-.698-1.217-1.016-1.693-.254 1.037-.106 1.513 1.26 1.25.56.719-1.513-.138-1.65-.137-.16.211h-1.301l.063-.423 1.789-1.27-.244-1.704.297-1.778-.117-.603-.582-1.016z" style="-inkscape-font-specification:a_LatinoTitulBr;stroke:#ccc" transform="translate(-17.724 -54.662)"/><path d="m74.943 55.391-.328.032 2.127-.137.318-.34 1.365.191 1.132.276-.804.698-1.111.646.137.19-.233.92.127 2.308v1.482l-1.672.889-.465.444-.91-.264h-.964l-2.021-.127.095-.19-1.037-2.393-.476-.614.465-1.428-.148-1.387-1.65-.751-.392-.804 2.021.18 1.926-.191-.159.37.17-.296 1.99.18-.752.751-.519.879-.38 1.958.275.942.92 1.661.572-.127 1.65-.212.107-1.555.296-1.98-.116-.687-.519-1.016zM79.631 55.391l.053-.37 1.186.19 1.365.106.772-.158 1.048.084.984 1.609-.296.423.688 1.312-.095-.571.582-1.312v-1.63l.434.2 2.106-.412.36.402.825-.169 1.947.243-.031-.222-1.98 1.852.276 1.122v3.037l1.81 1.09.126.244-.9-.074-1.11.466-1.376-.138-.413-.339-2.476.19 1.248-.687.921-1.058-.338-.794.137-.233-.233-.614.127-2.508-.137 1.418-1.016 1.556.243 1.09-.18.402-.19.53-.54 1.195-1.132-.148-.16-1.217-.687-.72v-1.672l-.593-1.63-.571-.36-.085-.687.286 2.042v1.831l-.201.476h-.106l1.206 1.25.53.719-1.461-.138-1.609-.137-.148.211h-1.27l.064-.423 1.788-1.27-.243-1.704.296-1.778-.116-.603-.582-1.016zM93.57 57.116l-.233.043.105-.201-1.555-1.842.36-.021 2.233-.19h1.756l.826.54.328-.414-.55 1.006-.847.709-.254.56-.106.202.19 3.45.604.762 1.429.89-1.63-.138-.159.211h-1.291l-.519-.211-2.413.264.55-1.08 1.26-1.026-.116-1.027.158-1.439z" style="-inkscape-font-specification:a_LatinoTitulBr;stroke:#ccc" transform="translate(-17.724 -54.662)"/></g></svg>