<svg xmlns="http://www.w3.org/2000/svg" width="350" height="33.272" viewBox="0 0 92.604 8.803"><g aria-label="recenzijas" style="font-size:10.5833px;letter-spacing:0;word-spacing:0;stroke-width:.4"><path d="m19.565 73.563-.38-.423-.678-.699-1.016-.963h3.651l1.376.286.73-.35.921.054 1.376.095.963.614.857 1.725-.624 1.513h-1.27l1.577 2.53 1.026 1.143h-1.248l-.604.116-1.397-.116-.074-.032-.656-2.455-.952-.561-1.112.116-.285.932.963 1.185.825.698-.434.233-1.725-.095h-2.984l-.032-.095-.54-.201 1.842-1.355-.233-1.249.296-.783zm2.149-.603.159.381v1.556l1.492.137.688-.434.74-.508-1.11-1.206-.36-.106zM28.392 71.828l.074-.37.698.158 1.736.212.625-.477 1.545.593 1.185-.148.794.137 1.143-.423 1.47.296-.105.964-.095.582v1.418l-1.048-1.196-.328-.466-.593-.413h-1.979l-.804.053-.339 1.62 1.863.243 1.005-1.228v1.122l.318.836-.318 1.44-1.069-.678-1.46.127v1.164l1.005.16h.847l.984.084 1.122-.773.889-1.27.032.064v1.227l.36 2.435-1.196-.424-.424.117-.56-.201-1.704.296-1.704-.138-.35.233-1.344-.095h-2.54l1.471-1.1.54-.921.064-.085v-2.085L30 73.542l-.318-.455ZM45.992 72.505l-.328-.35 1.132-.75.222.507-.338 1.736.18 1.471-.519-.751-1.44-1.408-1.354-.381-1.746.423-.37 1.228v1.408l.75 1.566.71.571h.868l1.1-.074 1.323-.434.455-1.502.022-.233.349 1.122-1.143 2.54h-1.577l-.614.18-.635-.191-1.26.138-1.428-.646-.275.064-.773-1.186-1.09-1.82.561-1.122v-.773l.095-.095 2.741-1.915 1.43-.276 1.375.265zM47.452 71.828l.074-.37.699.158 1.736.212.624-.477 1.545.593 1.186-.148.793.137 1.143-.423 1.471.296-.105.964-.096.582v1.418l-1.047-1.196-.329-.466-.592-.413h-1.98l-.804.053-.338 1.62 1.862.243 1.006-1.228v1.122l.317.836-.317 1.44-1.07-.678-1.46.127v1.164l1.006.16h.846l.985.084 1.122-.773.889-1.27.031.064v1.227l.36 2.435-1.196-.424-.423.117-.561-.201-1.704.296-1.704-.138-.35.233-1.343-.095h-2.54l1.47-1.1.54-.921.064-.085v-2.085l-.201-1.376-.317-.455ZM57.348 71.828l-.159.116 1.122-.148.74.137 1.09-.423 1.387.296.815.932.392.55.836 1.387.603.74.519-1.693-.466-.519-.963-1.121-.328-.519h1.608l1.524.201-.053-.35h1.376l-.391.689-1.418 1.08.243 1.693.222 1.375v1.26l-.508 1.132.254.445h-2.127l-1.111-.953-.085-.264-.646-.699-1.121-2.074-.265 1.217v.952l-.01.032 1.576 1.81-1.418-.138-.286.233-1.026-.095-2.19.127 1.47-1.238.54-.932.063-.084v-2.075l-.2-1.365-.318-.455zM68.249 71.828l-.096-.032.688.137 1.027-.423 1.28.296 1.387-.317.688-.106 1.386.18 1.006-.159-.381 1.715-.508-.35-.519 1.059-.116.508-1.63 1.714-.72 1.45-.466-.127h2.847l.339-1.047.751-.508.699-.657v1.874l-.508 1.47.254.52-1.196.084-.254-.021-1.672.116-.148-.116-1.122.2h-2.212l-1.545-.39.285-.234-.137-.391 1.005-1.006.858-1.354.232-.053 1.355-1.387.572-1.354-.805-.222-1.09-.202.042-.01-1.481 2.508-.233-1.069.296-.667zM77.953 73.553l.127.084-1.174-1.577-1.09-.465 1.121.063h3.07l1.682.117.328-.117-.529.72-.846 1.238-.265 1.768v1.238l-.243.444.963 1.196.825.71-.434.232-1.725-.095h-2.995l-.032-.095-.54-.201 1.853-1.376-.233-1.238.296-.784zM82.335 75.955l-.095-.042 2.01-.233-.169.656.381 1.556.995-1.768-.138-1.598.455-1.143-1.894-1.397-.19-.328 1.09.201h2.92l1.006-.391.699.116.084-.2-.815 1.184-.868.699.032.519.434 1.238-.497 1.661.106 1.419-2.615 1.068-.296-.031-2.032-.275-.836-.91.159-.752zM91.987 71.828l-.381-.424 1.736.487.105-.413h4.033l-.074.043-.964 1.598.075.487.698 1.46.762 1.069.148 1.005 1.397 1.45.868.752-.931-.476-2.117.158h-3.048l.159.064.137-.339 1.186-1.185-.223-.307h-1.45l-1.195-.392-.16.625h-.094l1.323 1.619-1.292-.138-.264.233-.91-.095-2.043.127 1.28-1.238.403-.932.084-.074 1.006-1.757.317-1.174.699-.741zm2.857 3.894.096.37-.106-1.132-.635-.995-.54.73-.487.847zM102.105 78.834l-.329-.35-1.005.773.222-.317-.338-1.916.18-1.26 1.164 1.26 1.46.699 1.609.158 1.1-.582-.867-.243h-.805l-2.614-1.154-1.65-1.958.708-1.65 2.075-1.027h.793l2.075.709h.211l1.334-.455.37 1.778-.264.465.042.635-2.064-1.566-1.714-.243-.445-.16-1.238.837 1.916.571.508.254 3.005.498.89 1.958.063.02-1.62 2.753-1.735.296-.794.053z" style="-inkscape-font-specification:a_LatinoTitulBr;stroke:#ccc" transform="translate(-16.692 -71.067)"/></g></svg>