<?xml version="1.0" encoding="UTF-8" standalone="no"?>
<!-- Created with Inkscape (http://www.inkscape.org/) -->
<svg
   xmlns:dc="http://purl.org/dc/elements/1.1/"
   xmlns:cc="http://creativecommons.org/ns#"
   xmlns:rdf="http://www.w3.org/1999/02/22-rdf-syntax-ns#"
   xmlns:svg="http://www.w3.org/2000/svg"
   xmlns="http://www.w3.org/2000/svg"
   xmlns:sodipodi="http://sodipodi.sourceforge.net/DTD/sodipodi-0.dtd"
   xmlns:inkscape="http://www.inkscape.org/namespaces/inkscape"
   width="744.09448819"
   height="1052.3622047"
   id="svg2417"
   sodipodi:version="0.32"
   inkscape:version="0.46"
   sodipodi:docname="logo.svg"
   inkscape:output_extension="org.inkscape.output.svg.inkscape">
  <defs
     id="defs2419">
    <inkscape:perspective
       sodipodi:type="inkscape:persp3d"
       inkscape:vp_x="0 : 526.18109 : 1"
       inkscape:vp_y="0 : 1000 : 0"
       inkscape:vp_z="744.09448 : 526.18109 : 1"
       inkscape:persp3d-origin="372.04724 : 350.78739 : 1"
       id="perspective2425" />
  </defs>
  <sodipodi:namedview
     id="base"
     pagecolor="#ffffff"
     bordercolor="#666666"
     borderopacity="1.0"
     gridtolerance="10000"
     guidetolerance="10"
     objecttolerance="10"
     inkscape:pageopacity="0.0"
     inkscape:pageshadow="2"
     inkscape:zoom="1.979899"
     inkscape:cx="342.90842"
     inkscape:cy="801.62279"
     inkscape:document-units="px"
     inkscape:current-layer="layer1"
     showgrid="false"
     inkscape:window-width="1656"
     inkscape:window-height="1027"
     inkscape:window-x="20"
     inkscape:window-y="-4" />
  <metadata
     id="metadata2422">
    <rdf:RDF>
      <cc:Work
         rdf:about="">
        <dc:format>image/svg+xml</dc:format>
        <dc:type
           rdf:resource="http://purl.org/dc/dcmitype/StillImage" />
      </cc:Work>
    </rdf:RDF>
  </metadata>
  <g
     inkscape:groupmode="layer"
     id="layer5"
     inkscape:label="Background"
     style="display:none">
    <rect
       style="opacity:1;fill:#330000;fill-opacity:1;fill-rule:nonzero;stroke:#ffffff;stroke-width:1;stroke-miterlimit:4;stroke-dasharray:none;stroke-opacity:1"
       id="rect3259"
       width="557.60419"
       height="173.74623"
       x="19.192898"
       y="56.351772"
       rx="4.4067612"
       ry="4.4067612" />
  </g>
  <g
     inkscape:groupmode="layer"
     id="layer3"
     style="opacity:1;display:inline"
     inkscape:label="Metal Red">
    <path
       style="font-size:40px;font-style:normal;font-weight:normal;opacity:1;fill:#55010f;fill-opacity:0.94117647;stroke:none;stroke-width:1px;stroke-linecap:butt;stroke-linejoin:miter;stroke-opacity:1;font-family:Bitstream Vera Sans"
       d="M 47.877117,99.55396 L 46.412027,97.926221 L 54.753127,99.79856 L 53.247057,98.21178 L 59.390517,98.21178 L 62.646007,98.41541 L 70.415967,98.41541 L 77.373917,99.31061 L 77.373917,102.60582 L 78.553447,106.02273 L 77.332947,111.96256 L 74.932927,108.66735 L 72.694307,104.92515 L 68.260547,103.09378 L 66.511117,110.13243 L 67.487017,112.6144 L 66.958097,117.70002 L 68.707517,120.75064 L 73.183507,127.05675 L 74.159407,127.464 L 69.887047,128.23752 L 61.506217,128.23752 L 55.607347,126.73144 L 53.247057,127.17967 L 50.725357,126.40615 L 54.467557,124.08683 L 57.641097,120.30366 L 59.431487,112.9397 L 57.519427,105.98175 L 59.268847,103.66367 L 54.386847,102.89015 L 48.243387,113.10236 L 47.348197,108.78901 L 48.486747,106.10467 L 47.877117,99.55396 z M 86.176897,106.22634 L 84.713047,104.5986 L 82.109397,101.91425 L 78.203307,98.21178 L 92.239657,98.21178 L 97.528887,99.31061 L 100.33616,97.967201 L 103.87474,98.17081 L 109.16397,98.53709 L 112.86644,100.89613 L 116.16166,107.52879 L 113.76164,113.34695 L 108.87964,113.34695 L 114.94116,123.06995 L 118.88822,127.464 L 114.08693,127.464 L 111.76762,127.91097 L 106.39768,127.464 L 106.11335,127.34232 L 103.59041,117.90364 L 99.92891,115.74697 L 95.656547,116.19395 L 94.558967,119.77474 L 98.2602,124.33143 L 101.43374,127.01702 L 99.76626,127.91097 L 93.134857,127.54595 L 81.661187,127.54595 L 81.539507,127.17967 L 79.464787,126.40615 L 86.543167,121.19886 L 85.647977,116.39757 L 86.787767,113.38668 L 86.176897,106.22634 z M 94.436047,103.90703 L 95.046927,105.37212 L 95.046927,111.35294 L 100.78314,111.88186 L 103.42776,110.21314 L 106.276,108.26134 L 102.00364,103.6227 L 100.62049,103.21546 L 94.436047,103.90703 z M 143.0486,99.55396 L 142.398,98.25276 L 145.36793,97.845521 L 151.22705,98.53709 L 155.49817,97.926221 L 161.6019,99.79856 L 159.44524,98.57806 L 153.95238,105.04682 L 154.8066,106.83722 L 153.50539,112.89873 L 154.19698,118.14699 L 152.97647,118.02531 L 151.63306,123.63985 L 149.68126,126.3242 L 139.99799,128.1146 L 136.25455,128.92909 L 132.51111,127.87124 L 127.58939,121.27956 L 124.98449,117.4964 L 125.96164,114.56745 L 125.43272,109.31794 L 127.18214,105.53477 L 119.93986,100.16483 L 119.20731,98.90337 L 123.27605,99.67564 L 134.26053,99.67564 L 137.96299,98.17081 L 140.56788,98.61779 L 140.85221,97.845521 L 138.04494,102.40221 L 135.03404,105.0878 L 135.03404,107.93479 L 136.82444,116.47952 L 139.38711,123.51818 L 143.17152,122.82536 L 149.11136,116.64217 L 149.39569,115.17707 L 149.39569,109.84686 L 148.62341,106.14565 L 147.60529,104.39623 L 143.0486,99.55396 z M 161.06678,99.55396 L 161.3511,98.12984 L 164.03669,98.74071 L 170.70908,99.55396 L 173.1091,97.723841 L 179.04893,100.00218 L 183.60562,99.43229 L 186.65749,99.9612 L 191.05153,98.33346 L 196.70704,99.47326 L 196.29979,103.17573 L 195.93351,105.41309 L 195.93351,110.86498 L 191.90575,106.26732 L 190.64428,104.47692 L 188.36594,102.89015 L 180.75862,102.89015 L 177.66579,103.09378 L 176.36458,109.31794 L 183.52491,110.25411 L 187.39003,105.53477 L 187.39003,109.84686 L 188.61053,113.06138 L 187.39003,118.59522 L 183.28033,115.99032 L 177.66579,116.47952 L 177.66579,120.95426 L 181.53091,121.56513 L 184.78639,121.56513 L 188.56956,121.89043 L 192.88289,118.92051 L 196.29979,114.03853 L 196.42147,114.28187 L 196.42147,119.00122 L 197.80461,128.3592 L 193.20819,126.73144 L 191.58045,127.17967 L 189.42379,126.40615 L 182.87432,127.54595 L 176.32361,127.01702 L 174.98144,127.91097 L 169.81388,127.54595 L 160.0499,127.54595 L 165.7054,123.31455 L 167.78013,119.77474 L 168.02349,119.44944 L 168.02349,111.43364 L 167.25121,106.14565 L 166.03071,104.39623 L 161.06678,99.55396 z M 214.78356,99.55396 L 215.55707,99.39131 L 219.58485,98.53709 L 224.05959,98.94434 L 225.40176,99.51299 L 233.29464,98.00817 L 233.66092,105.29017 L 235.41034,106.91792 L 235.69591,111.19028 L 237.4863,106.63359 L 239.96703,101.8323 L 241.18752,98.25276 L 247.85991,97.763571 L 249.8949,100.08288 L 256.7709,100.08288 L 259.12995,99.39131 L 261.44927,98.12984 L 257.17691,101.58896 L 254.57326,106.18537 L 252.98649,108.87096 L 253.84071,116.96747 L 254.08531,121.27956 L 256.93356,125.14468 L 261.12397,126.8941 L 256.07933,128.03389 L 250.26117,126.81339 L 247.04666,126.40615 L 241.63574,127.09772 L 237.4863,126.4881 L 245.58157,121.97114 L 244.07674,120.05907 L 244.97193,116.51925 L 245.82616,114.89275 L 244.52372,108.22036 L 245.21529,104.68055 L 243.79241,104.15163 L 242.73457,108.70832 L 242.73457,112.08548 L 239.76464,117.94337 L 239.3574,123.76153 L 238.95015,128.43989 L 233.78384,126.60978 L 230.16208,120.87356 L 230.40667,118.43257 L 228.4946,114.07826 L 229.30785,110.86498 L 226.21625,105.53477 L 226.09333,104.27331 L 226.09333,108.30107 L 227.47773,115.99032 L 226.45961,118.10602 L 226.62226,120.46631 L 226.3789,120.58799 L 232.15609,127.54595 L 226.86686,127.01702 L 225.80901,127.91097 L 221.98486,127.54595 L 213.76668,128.03389 L 219.42219,123.27358 L 221.49692,119.69279 L 221.74027,119.36749 L 221.74027,111.39391 L 220.96799,106.14565 L 219.7475,104.39623 L 214.78356,99.55396 z M 261.50763,99.55396 L 261.79196,98.12984 L 264.47755,98.74071 L 271.14993,99.55396 L 273.54995,97.723841 L 279.48979,100.00218 L 284.04648,99.43229 L 287.09834,99.9612 L 291.49238,98.33346 L 297.14789,99.47326 L 296.74064,103.17573 L 296.37437,105.41309 L 296.37437,110.86498 L 292.3466,106.26732 L 291.08514,104.47692 L 288.80679,102.89015 L 281.19948,102.89015 L 278.10664,103.09378 L 276.80544,109.31794 L 283.96577,110.25411 L 287.83088,105.53477 L 287.83088,109.84686 L 289.05138,113.06138 L 287.83088,118.59522 L 283.72118,115.99032 L 278.10664,116.47952 L 278.10664,120.95426 L 281.97176,121.56513 L 285.22724,121.56513 L 289.01041,121.89043 L 293.32374,118.92051 L 296.74064,114.03853 L 296.86232,114.28187 L 296.86232,119.00122 L 298.24547,128.3592 L 293.64905,126.73144 L 292.02131,127.17967 L 289.86464,126.40615 L 283.31518,127.54595 L 276.76447,127.01702 L 275.42229,127.91097 L 270.25473,127.54595 L 260.49075,127.54595 L 266.14626,123.31455 L 268.22098,119.77474 L 268.46434,119.44944 L 268.46434,111.43364 L 267.69206,106.14565 L 266.47156,104.39623 L 261.50763,99.55396 z M 299.77389,99.55396 L 298.30879,97.926221 L 306.64989,99.79856 L 305.14383,98.21178 L 311.28729,98.21178 L 314.54277,98.41541 L 322.31273,98.41541 L 329.27069,99.31061 L 329.27069,102.60582 L 330.45021,106.02273 L 329.22972,111.96256 L 326.82969,108.66735 L 324.59108,104.92515 L 320.15731,103.09378 L 318.40789,110.13243 L 319.38379,112.6144 L 318.85486,117.70002 L 320.60428,120.75064 L 325.08027,127.05675 L 326.05617,127.464 L 321.78381,128.23752 L 313.40298,128.23752 L 307.50411,126.73144 L 305.14383,127.17967 L 302.62212,126.40615 L 306.36432,124.08683 L 309.53787,120.30366 L 311.32826,112.9397 L 309.41619,105.98175 L 311.16561,103.66367 L 306.28361,102.89015 L 300.14015,113.10236 L 299.24496,108.78901 L 300.38351,106.10467 L 299.77389,99.55396 z M 339.21346,99.55396 L 337.74836,97.926221 L 344.42075,99.79856 L 344.82799,98.21178 L 360.32819,98.21178 L 360.04386,98.37444 L 356.34139,104.5179 L 356.62696,106.38899 L 359.31131,112.00353 L 362.2415,116.11324 L 362.81015,119.97836 L 368.18134,125.55193 L 371.51753,128.43989 L 367.93674,126.60978 L 359.79926,127.2194 L 348.08224,127.2194 L 348.69311,127.464 L 349.22203,126.16155 L 353.77872,121.60486 L 352.9245,120.42533 L 347.34969,120.42533 L 342.75328,118.92051 L 342.1424,121.32053 L 341.77613,121.32053 L 346.86174,127.54595 L 341.89905,127.01702 L 340.88094,127.91097 L 337.38209,127.54595 L 329.53018,128.03389 L 334.45315,123.27358 L 335.99894,119.69279 L 336.32425,119.40847 L 340.18935,112.65413 L 341.40986,108.13842 L 344.09545,105.29017 L 339.21346,99.55396 z M 350.19793,114.52647 L 350.56421,115.9506 L 350.15696,111.59628 L 347.71597,107.77215 L 345.64124,110.57941 L 343.77014,113.8349 L 350.19793,114.52647 z M 398.34985,122.46033 L 397.08838,121.11692 L 400.54624,118.30965 L 402.58,117.00844 L 405.75353,111.59628 L 406.44512,119.61208 L 405.26559,119.61208 L 405.26559,126.77242 L 394.48473,126.77242 L 390.13043,127.95195 L 386.14363,128.43989 L 379.22789,126.60978 L 373.69406,127.2194 L 373.20611,127.2194 L 369.9109,127.54595 L 374.01936,125.14468 L 376.98928,121.27956 L 377.1122,120.10004 L 377.1122,116.51925 L 378.49535,106.51067 L 373.04346,100.44916 L 370.92776,98.61779 L 370.88679,97.845521 L 378.04712,98.98407 L 384.51589,98.45514 L 386.10266,99.35034 L 394.64738,99.35034 L 387.12077,105.0878 L 387.77138,105.33115 L 387.03883,105.98175 L 387.28342,105.98175 L 387.28342,116.8458 L 386.50991,122.41935 L 391.63649,122.98926 L 398.34985,122.46033 z"
       id="path3243"
       inkscape:export-filename="D:\metal\_dev\logo\logo.png"
       inkscape:export-xdpi="298.7034"
       inkscape:export-ydpi="298.7034" />
    <path
       inkscape:export-ydpi="298.7034"
       inkscape:export-xdpi="298.7034"
       inkscape:export-filename="D:\metal\_dev\logo\logo.png"
       id="path3255"
       d="M 47.877117,99.55396 L 46.412027,97.926221 L 54.753127,99.79856 L 53.247057,98.21178 L 59.390517,98.21178 L 62.646007,98.41541 L 70.415967,98.41541 L 77.373917,99.31061 L 77.373917,102.60582 L 78.553447,106.02273 L 77.332947,111.96256 L 74.932927,108.66735 L 72.694307,104.92515 L 68.260547,103.09378 L 66.511117,110.13243 L 67.487017,112.6144 L 66.958097,117.70002 L 68.707517,120.75064 L 73.183507,127.05675 L 74.159407,127.464 L 69.887047,128.23752 L 61.506217,128.23752 L 55.607347,126.73144 L 53.247057,127.17967 L 50.725357,126.40615 L 54.467557,124.08683 L 57.641097,120.30366 L 59.431487,112.9397 L 57.519427,105.98175 L 59.268847,103.66367 L 54.386847,102.89015 L 48.243387,113.10236 L 47.348197,108.78901 L 48.486747,106.10467 L 47.877117,99.55396 z M 86.176897,106.22634 L 84.713047,104.5986 L 82.109397,101.91425 L 78.203307,98.21178 L 92.239657,98.21178 L 97.528887,99.31061 L 100.33616,97.967201 L 103.87474,98.17081 L 109.16397,98.53709 L 112.86644,100.89613 L 116.16166,107.52879 L 113.76164,113.34695 L 108.87964,113.34695 L 114.94116,123.06995 L 118.88822,127.464 L 114.08693,127.464 L 111.76762,127.91097 L 106.39768,127.464 L 106.11335,127.34232 L 103.59041,117.90364 L 99.92891,115.74697 L 95.656547,116.19395 L 94.558967,119.77474 L 98.2602,124.33143 L 101.43374,127.01702 L 99.76626,127.91097 L 93.134857,127.54595 L 81.661187,127.54595 L 81.539507,127.17967 L 79.464787,126.40615 L 86.543167,121.19886 L 85.647977,116.39757 L 86.787767,113.38668 L 86.176897,106.22634 z M 94.436047,103.90703 L 95.046927,105.37212 L 95.046927,111.35294 L 100.78314,111.88186 L 103.42776,110.21314 L 106.276,108.26134 L 102.00364,103.6227 L 100.62049,103.21546 L 94.436047,103.90703 z M 143.0486,99.55396 L 142.398,98.25276 L 145.36793,97.845521 L 151.22705,98.53709 L 155.49817,97.926221 L 161.6019,99.79856 L 159.44524,98.57806 L 153.95238,105.04682 L 154.8066,106.83722 L 153.50539,112.89873 L 154.19698,118.14699 L 152.97647,118.02531 L 151.63306,123.63985 L 149.68126,126.3242 L 139.99799,128.1146 L 136.25455,128.92909 L 132.51111,127.87124 L 127.58939,121.27956 L 124.98449,117.4964 L 125.96164,114.56745 L 125.43272,109.31794 L 127.18214,105.53477 L 119.93986,100.16483 L 119.20731,98.90337 L 123.27605,99.67564 L 134.26053,99.67564 L 137.96299,98.17081 L 140.56788,98.61779 L 140.85221,97.845521 L 138.04494,102.40221 L 135.03404,105.0878 L 135.03404,107.93479 L 136.82444,116.47952 L 139.38711,123.51818 L 143.17152,122.82536 L 149.11136,116.64217 L 149.39569,115.17707 L 149.39569,109.84686 L 148.62341,106.14565 L 147.60529,104.39623 L 143.0486,99.55396 z M 161.06678,99.55396 L 161.3511,98.12984 L 164.03669,98.74071 L 170.70908,99.55396 L 173.1091,97.723841 L 179.04893,100.00218 L 183.60562,99.43229 L 186.65749,99.9612 L 191.05153,98.33346 L 196.70704,99.47326 L 196.29979,103.17573 L 195.93351,105.41309 L 195.93351,110.86498 L 191.90575,106.26732 L 190.64428,104.47692 L 188.36594,102.89015 L 180.75862,102.89015 L 177.66579,103.09378 L 176.36458,109.31794 L 183.52491,110.25411 L 187.39003,105.53477 L 187.39003,109.84686 L 188.61053,113.06138 L 187.39003,118.59522 L 183.28033,115.99032 L 177.66579,116.47952 L 177.66579,120.95426 L 181.53091,121.56513 L 184.78639,121.56513 L 188.56956,121.89043 L 192.88289,118.92051 L 196.29979,114.03853 L 196.42147,114.28187 L 196.42147,119.00122 L 197.80461,128.3592 L 193.20819,126.73144 L 191.58045,127.17967 L 189.42379,126.40615 L 182.87432,127.54595 L 176.32361,127.01702 L 174.98144,127.91097 L 169.81388,127.54595 L 160.0499,127.54595 L 165.7054,123.31455 L 167.78013,119.77474 L 168.02349,119.44944 L 168.02349,111.43364 L 167.25121,106.14565 L 166.03071,104.39623 L 161.06678,99.55396 z M 214.78356,99.55396 L 215.55707,99.39131 L 219.58485,98.53709 L 224.05959,98.94434 L 225.40176,99.51299 L 233.29464,98.00817 L 233.66092,105.29017 L 235.41034,106.91792 L 235.69591,111.19028 L 237.4863,106.63359 L 239.96703,101.8323 L 241.18752,98.25276 L 247.85991,97.763571 L 249.8949,100.08288 L 256.7709,100.08288 L 259.12995,99.39131 L 261.44927,98.12984 L 257.17691,101.58896 L 254.57326,106.18537 L 252.98649,108.87096 L 253.84071,116.96747 L 254.08531,121.27956 L 256.93356,125.14468 L 261.12397,126.8941 L 256.07933,128.03389 L 250.26117,126.81339 L 247.04666,126.40615 L 241.63574,127.09772 L 237.4863,126.4881 L 245.58157,121.97114 L 244.07674,120.05907 L 244.97193,116.51925 L 245.82616,114.89275 L 244.52372,108.22036 L 245.21529,104.68055 L 243.79241,104.15163 L 242.73457,108.70832 L 242.73457,112.08548 L 239.76464,117.94337 L 239.3574,123.76153 L 238.95015,128.43989 L 233.78384,126.60978 L 230.16208,120.87356 L 230.40667,118.43257 L 228.4946,114.07826 L 229.30785,110.86498 L 226.21625,105.53477 L 226.09333,104.27331 L 226.09333,108.30107 L 227.47773,115.99032 L 226.45961,118.10602 L 226.62226,120.46631 L 226.3789,120.58799 L 232.15609,127.54595 L 226.86686,127.01702 L 225.80901,127.91097 L 221.98486,127.54595 L 213.76668,128.03389 L 219.42219,123.27358 L 221.49692,119.69279 L 221.74027,119.36749 L 221.74027,111.39391 L 220.96799,106.14565 L 219.7475,104.39623 L 214.78356,99.55396 z M 261.50763,99.55396 L 261.79196,98.12984 L 264.47755,98.74071 L 271.14993,99.55396 L 273.54995,97.723841 L 279.48979,100.00218 L 284.04648,99.43229 L 287.09834,99.9612 L 291.49238,98.33346 L 297.14789,99.47326 L 296.74064,103.17573 L 296.37437,105.41309 L 296.37437,110.86498 L 292.3466,106.26732 L 291.08514,104.47692 L 288.80679,102.89015 L 281.19948,102.89015 L 278.10664,103.09378 L 276.80544,109.31794 L 283.96577,110.25411 L 287.83088,105.53477 L 287.83088,109.84686 L 289.05138,113.06138 L 287.83088,118.59522 L 283.72118,115.99032 L 278.10664,116.47952 L 278.10664,120.95426 L 281.97176,121.56513 L 285.22724,121.56513 L 289.01041,121.89043 L 293.32374,118.92051 L 296.74064,114.03853 L 296.86232,114.28187 L 296.86232,119.00122 L 298.24547,128.3592 L 293.64905,126.73144 L 292.02131,127.17967 L 289.86464,126.40615 L 283.31518,127.54595 L 276.76447,127.01702 L 275.42229,127.91097 L 270.25473,127.54595 L 260.49075,127.54595 L 266.14626,123.31455 L 268.22098,119.77474 L 268.46434,119.44944 L 268.46434,111.43364 L 267.69206,106.14565 L 266.47156,104.39623 L 261.50763,99.55396 z M 299.77389,99.55396 L 298.30879,97.926221 L 306.64989,99.79856 L 305.14383,98.21178 L 311.28729,98.21178 L 314.54277,98.41541 L 322.31273,98.41541 L 329.27069,99.31061 L 329.27069,102.60582 L 330.45021,106.02273 L 329.22972,111.96256 L 326.82969,108.66735 L 324.59108,104.92515 L 320.15731,103.09378 L 318.40789,110.13243 L 319.38379,112.6144 L 318.85486,117.70002 L 320.60428,120.75064 L 325.08027,127.05675 L 326.05617,127.464 L 321.78381,128.23752 L 313.40298,128.23752 L 307.50411,126.73144 L 305.14383,127.17967 L 302.62212,126.40615 L 306.36432,124.08683 L 309.53787,120.30366 L 311.32826,112.9397 L 309.41619,105.98175 L 311.16561,103.66367 L 306.28361,102.89015 L 300.14015,113.10236 L 299.24496,108.78901 L 300.38351,106.10467 L 299.77389,99.55396 z M 339.21346,99.55396 L 337.74836,97.926221 L 344.42075,99.79856 L 344.82799,98.21178 L 360.32819,98.21178 L 360.04386,98.37444 L 356.34139,104.5179 L 356.62696,106.38899 L 359.31131,112.00353 L 362.2415,116.11324 L 362.81015,119.97836 L 368.18134,125.55193 L 371.51753,128.43989 L 367.93674,126.60978 L 359.79926,127.2194 L 348.08224,127.2194 L 348.69311,127.464 L 349.22203,126.16155 L 353.77872,121.60486 L 352.9245,120.42533 L 347.34969,120.42533 L 342.75328,118.92051 L 342.1424,121.32053 L 341.77613,121.32053 L 346.86174,127.54595 L 341.89905,127.01702 L 340.88094,127.91097 L 337.38209,127.54595 L 329.53018,128.03389 L 334.45315,123.27358 L 335.99894,119.69279 L 336.32425,119.40847 L 340.18935,112.65413 L 341.40986,108.13842 L 344.09545,105.29017 L 339.21346,99.55396 z M 350.19793,114.52647 L 350.56421,115.9506 L 350.15696,111.59628 L 347.71597,107.77215 L 345.64124,110.57941 L 343.77014,113.8349 L 350.19793,114.52647 z M 398.34985,122.46033 L 397.08838,121.11692 L 400.54624,118.30965 L 402.58,117.00844 L 405.75353,111.59628 L 406.44512,119.61208 L 405.26559,119.61208 L 405.26559,126.77242 L 394.48473,126.77242 L 390.13043,127.95195 L 386.14363,128.43989 L 379.22789,126.60978 L 373.69406,127.2194 L 373.20611,127.2194 L 369.9109,127.54595 L 374.01936,125.14468 L 376.98928,121.27956 L 377.1122,120.10004 L 377.1122,116.51925 L 378.49535,106.51067 L 373.04346,100.44916 L 370.92776,98.61779 L 370.88679,97.845521 L 378.04712,98.98407 L 384.51589,98.45514 L 386.10266,99.35034 L 394.64738,99.35034 L 387.12077,105.0878 L 387.77138,105.33115 L 387.03883,105.98175 L 387.28342,105.98175 L 387.28342,116.8458 L 386.50991,122.41935 L 391.63649,122.98926 L 398.34985,122.46033 z"
       style="font-size:40px;font-style:normal;font-weight:normal;opacity:1;fill:#55010f;fill-opacity:1;stroke:none;stroke-width:1px;stroke-linecap:butt;stroke-linejoin:miter;stroke-opacity:1;font-family:Bitstream Vera Sans" />
  </g>
  <g
     inkscape:label="Metal Black"
     inkscape:groupmode="layer"
     id="layer1"
     style="display:inline">
    <path
       id="path2434"
       d="M 45.414162,97.90127 L 43.949072,96.27353 L 52.290172,98.14587 L 50.784102,96.55909 L 56.927562,96.55909 L 60.183052,96.76272 L 67.953012,96.76272 L 74.910962,97.65792 L 74.910962,100.95313 L 76.090492,104.37004 L 74.869992,110.30987 L 72.469972,107.01466 L 70.231352,103.27246 L 65.797592,101.44109 L 64.048162,108.47974 L 65.024062,110.96171 L 64.495142,116.04733 L 66.244562,119.09795 L 70.720552,125.40406 L 71.696452,125.81131 L 67.424092,126.58483 L 59.043262,126.58483 L 53.144392,125.07875 L 50.784102,125.52698 L 48.262402,124.75346 L 52.004602,122.43414 L 55.178142,118.65097 L 56.968532,111.28701 L 55.056472,104.32906 L 56.805892,102.01098 L 51.923892,101.23746 L 45.780432,111.44967 L 44.885242,107.13632 L 46.023792,104.45198 L 45.414162,97.90127 z M 83.713942,104.57365 L 82.250092,102.94591 L 79.646442,100.26156 L 75.740352,96.55909 L 89.776702,96.55909 L 95.065932,97.65792 L 97.873202,96.31451 L 101.41178,96.51812 L 106.70101,96.8844 L 110.40348,99.24344 L 113.6987,105.8761 L 111.29868,111.69426 L 106.41668,111.69426 L 112.4782,121.41726 L 116.42526,125.81131 L 111.62397,125.81131 L 109.30466,126.25828 L 103.93472,125.81131 L 103.65039,125.68963 L 101.12745,116.25095 L 97.465952,114.09428 L 93.193592,114.54126 L 92.096012,118.12205 L 95.797242,122.67874 L 98.970782,125.36433 L 97.303302,126.25828 L 90.671902,125.89326 L 79.198232,125.89326 L 79.076552,125.52698 L 77.001832,124.75346 L 84.080212,119.54617 L 83.185022,114.74488 L 84.324812,111.73399 L 83.713942,104.57365 z M 91.973092,102.25434 L 92.583972,103.71943 L 92.583972,109.70025 L 98.320182,110.22917 L 100.9648,108.56045 L 103.81304,106.60865 L 99.540682,101.97001 L 98.157532,101.56277 L 91.973092,102.25434 z M 140.58564,97.90127 L 139.93504,96.60007 L 142.90497,96.19283 L 148.76409,96.8844 L 153.03521,96.27353 L 159.13894,98.14587 L 156.98228,96.92537 L 151.48942,103.39413 L 152.34364,105.18453 L 151.04243,111.24604 L 151.73402,116.4943 L 150.51351,116.37262 L 149.1701,121.98716 L 147.2183,124.67151 L 137.53503,126.46191 L 133.79159,127.2764 L 130.04815,126.21855 L 125.12643,119.62687 L 122.52153,115.84371 L 123.49868,112.91476 L 122.96976,107.66525 L 124.71918,103.88208 L 117.4769,98.51214 L 116.74435,97.25068 L 120.81309,98.02295 L 131.79757,98.02295 L 135.50003,96.51812 L 138.10492,96.9651 L 138.38925,96.19283 L 135.58198,100.74952 L 132.57108,103.43511 L 132.57108,106.2821 L 134.36148,114.82683 L 136.92415,121.86549 L 140.70856,121.17267 L 146.6484,114.98948 L 146.93273,113.52438 L 146.93273,108.19417 L 146.16045,104.49296 L 145.14233,102.74354 L 140.58564,97.90127 z M 158.60382,97.90127 L 158.88814,96.47715 L 161.57373,97.08802 L 168.24612,97.90127 L 170.64614,96.07115 L 176.58597,98.34949 L 181.14266,97.7796 L 184.19453,98.30851 L 188.58857,96.68077 L 194.24408,97.82057 L 193.83683,101.52304 L 193.47055,103.7604 L 193.47055,109.21229 L 189.44279,104.61463 L 188.18132,102.82423 L 185.90298,101.23746 L 178.29566,101.23746 L 175.20283,101.44109 L 173.90162,107.66525 L 181.06195,108.60142 L 184.92707,103.88208 L 184.92707,108.19417 L 186.14757,111.40869 L 184.92707,116.94253 L 180.81737,114.33763 L 175.20283,114.82683 L 175.20283,119.30157 L 179.06795,119.91244 L 182.32343,119.91244 L 186.1066,120.23774 L 190.41993,117.26782 L 193.83683,112.38584 L 193.95851,112.62918 L 193.95851,117.34853 L 195.34165,126.70651 L 190.74523,125.07875 L 189.11749,125.52698 L 186.96083,124.75346 L 180.41136,125.89326 L 173.86065,125.36433 L 172.51848,126.25828 L 167.35092,125.89326 L 157.58694,125.89326 L 163.24244,121.66186 L 165.31717,118.12205 L 165.56053,117.79675 L 165.56053,109.78095 L 164.78825,104.49296 L 163.56775,102.74354 L 158.60382,97.90127 z M 212.3206,97.90127 L 213.09411,97.73862 L 217.12189,96.8844 L 221.59663,97.29165 L 222.9388,97.8603 L 230.83168,96.35548 L 231.19796,103.63748 L 232.94738,105.26523 L 233.23295,109.53759 L 235.02334,104.9809 L 237.50407,100.17961 L 238.72456,96.60007 L 245.39695,96.11088 L 247.43194,98.43019 L 254.30794,98.43019 L 256.66699,97.73862 L 258.98631,96.47715 L 254.71395,99.93627 L 252.1103,104.53268 L 250.52353,107.21827 L 251.37775,115.31478 L 251.62235,119.62687 L 254.4706,123.49199 L 258.66101,125.24141 L 253.61637,126.3812 L 247.79821,125.1607 L 244.5837,124.75346 L 239.17278,125.44503 L 235.02334,124.83541 L 243.11861,120.31845 L 241.61378,118.40638 L 242.50897,114.86656 L 243.3632,113.24006 L 242.06076,106.56767 L 242.75233,103.02786 L 241.32945,102.49894 L 240.27161,107.05563 L 240.27161,110.43279 L 237.30168,116.29068 L 236.89444,122.10884 L 236.48719,126.7872 L 231.32088,124.95709 L 227.69912,119.22087 L 227.94371,116.77988 L 226.03164,112.42557 L 226.84489,109.21229 L 223.75329,103.88208 L 223.63037,102.62062 L 223.63037,106.64838 L 225.01477,114.33763 L 223.99665,116.45333 L 224.1593,118.81362 L 223.91594,118.9353 L 229.69313,125.89326 L 224.4039,125.36433 L 223.34605,126.25828 L 219.5219,125.89326 L 211.30372,126.3812 L 216.95923,121.62089 L 219.03396,118.0401 L 219.27731,117.7148 L 219.27731,109.74122 L 218.50503,104.49296 L 217.28454,102.74354 L 212.3206,97.90127 z M 259.04467,97.90127 L 259.329,96.47715 L 262.01459,97.08802 L 268.68697,97.90127 L 271.08699,96.07115 L 277.02683,98.34949 L 281.58352,97.7796 L 284.63538,98.30851 L 289.02942,96.68077 L 294.68493,97.82057 L 294.27768,101.52304 L 293.91141,103.7604 L 293.91141,109.21229 L 289.88364,104.61463 L 288.62218,102.82423 L 286.34383,101.23746 L 278.73652,101.23746 L 275.64368,101.44109 L 274.34248,107.66525 L 281.50281,108.60142 L 285.36792,103.88208 L 285.36792,108.19417 L 286.58842,111.40869 L 285.36792,116.94253 L 281.25822,114.33763 L 275.64368,114.82683 L 275.64368,119.30157 L 279.5088,119.91244 L 282.76428,119.91244 L 286.54745,120.23774 L 290.86078,117.26782 L 294.27768,112.38584 L 294.39936,112.62918 L 294.39936,117.34853 L 295.78251,126.70651 L 291.18609,125.07875 L 289.55835,125.52698 L 287.40168,124.75346 L 280.85222,125.89326 L 274.30151,125.36433 L 272.95933,126.25828 L 267.79177,125.89326 L 258.02779,125.89326 L 263.6833,121.66186 L 265.75802,118.12205 L 266.00138,117.79675 L 266.00138,109.78095 L 265.2291,104.49296 L 264.0086,102.74354 L 259.04467,97.90127 z M 297.31093,97.90127 L 295.84583,96.27353 L 304.18693,98.14587 L 302.68087,96.55909 L 308.82433,96.55909 L 312.07981,96.76272 L 319.84977,96.76272 L 326.80773,97.65792 L 326.80773,100.95313 L 327.98725,104.37004 L 326.76676,110.30987 L 324.36673,107.01466 L 322.12812,103.27246 L 317.69435,101.44109 L 315.94493,108.47974 L 316.92083,110.96171 L 316.3919,116.04733 L 318.14132,119.09795 L 322.61731,125.40406 L 323.59321,125.81131 L 319.32085,126.58483 L 310.94002,126.58483 L 305.04115,125.07875 L 302.68087,125.52698 L 300.15916,124.75346 L 303.90136,122.43414 L 307.07491,118.65097 L 308.8653,111.28701 L 306.95323,104.32906 L 308.70265,102.01098 L 303.82065,101.23746 L 297.67719,111.44967 L 296.782,107.13632 L 297.92055,104.45198 L 297.31093,97.90127 z M 336.7505,97.90127 L 335.2854,96.27353 L 341.95779,98.14587 L 342.36503,96.55909 L 357.86523,96.55909 L 357.5809,96.72175 L 353.87843,102.86521 L 354.164,104.7363 L 356.84835,110.35084 L 359.77854,114.46055 L 360.34719,118.32567 L 365.71838,123.89924 L 369.05457,126.7872 L 365.47378,124.95709 L 357.3363,125.56671 L 345.61928,125.56671 L 346.23015,125.81131 L 346.75907,124.50886 L 351.31576,119.95217 L 350.46154,118.77264 L 344.88673,118.77264 L 340.29032,117.26782 L 339.67944,119.66784 L 339.31317,119.66784 L 344.39878,125.89326 L 339.43609,125.36433 L 338.41798,126.25828 L 334.91913,125.89326 L 327.06722,126.3812 L 331.99019,121.62089 L 333.53598,118.0401 L 333.86129,117.75578 L 337.72639,111.00144 L 338.9469,106.48573 L 341.63249,103.63748 L 336.7505,97.90127 z M 347.73497,112.87378 L 348.10125,114.29791 L 347.694,109.94359 L 345.25301,106.11946 L 343.17828,108.92672 L 341.30718,112.18221 L 347.73497,112.87378 z M 395.88689,120.80764 L 394.62542,119.46423 L 398.08328,116.65696 L 400.11704,115.35575 L 403.29057,109.94359 L 403.98216,117.95939 L 402.80263,117.95939 L 402.80263,125.11973 L 392.02177,125.11973 L 387.66747,126.29926 L 383.68067,126.7872 L 376.76493,124.95709 L 371.2311,125.56671 L 370.74315,125.56671 L 367.44794,125.89326 L 371.5564,123.49199 L 374.52632,119.62687 L 374.64924,118.44735 L 374.64924,114.86656 L 376.03239,104.85798 L 370.5805,98.79647 L 368.4648,96.9651 L 368.42383,96.19283 L 375.58416,97.33138 L 382.05293,96.80245 L 383.6397,97.69765 L 392.18442,97.69765 L 384.65781,103.43511 L 385.30842,103.67846 L 384.57587,104.32906 L 384.82046,104.32906 L 384.82046,115.19311 L 384.04695,120.76666 L 389.17353,121.33657 L 395.88689,120.80764 z"
       style="font-size:40px;font-style:normal;font-weight:normal;fill:#000000;fill-opacity:1;stroke:#ffffff;stroke-width:1px;stroke-linecap:butt;stroke-linejoin:miter;stroke-opacity:1;font-family:Bitstream Vera Sans"
       inkscape:export-filename="D:\metal\_dev\logo\logo.png"
       inkscape:export-xdpi="298.7034"
       inkscape:export-ydpi="298.7034" />
    <path
       inkscape:export-ydpi="298.7034"
       inkscape:export-xdpi="298.7034"
       inkscape:export-filename="D:\metal\_dev\logo\logo.png"
       style="font-size:40px;font-style:normal;font-weight:normal;fill:#000000;fill-opacity:1;stroke:#ffffff;stroke-width:1px;stroke-linecap:butt;stroke-linejoin:miter;stroke-opacity:1;font-family:Bitstream Vera Sans"
       d="M 45.414162,97.90127 L 43.949072,96.27353 L 52.290172,98.14587 L 50.784102,96.55909 L 56.927562,96.55909 L 60.183052,96.76272 L 67.953012,96.76272 L 74.910962,97.65792 L 74.910962,100.95313 L 76.090492,104.37004 L 74.869992,110.30987 L 72.469972,107.01466 L 70.231352,103.27246 L 65.797592,101.44109 L 64.048162,108.47974 L 65.024062,110.96171 L 64.495142,116.04733 L 66.244562,119.09795 L 70.720552,125.40406 L 71.696452,125.81131 L 67.424092,126.58483 L 59.043262,126.58483 L 53.144392,125.07875 L 50.784102,125.52698 L 48.262402,124.75346 L 52.004602,122.43414 L 55.178142,118.65097 L 56.968532,111.28701 L 55.056472,104.32906 L 56.805892,102.01098 L 51.923892,101.23746 L 45.780432,111.44967 L 44.885242,107.13632 L 46.023792,104.45198 L 45.414162,97.90127 z M 83.713942,104.57365 L 82.250092,102.94591 L 79.646442,100.26156 L 75.740352,96.55909 L 89.776702,96.55909 L 95.065932,97.65792 L 97.873202,96.31451 L 101.41178,96.51812 L 106.70101,96.8844 L 110.40348,99.24344 L 113.6987,105.8761 L 111.29868,111.69426 L 106.41668,111.69426 L 112.4782,121.41726 L 116.42526,125.81131 L 111.62397,125.81131 L 109.30466,126.25828 L 103.93472,125.81131 L 103.65039,125.68963 L 101.12745,116.25095 L 97.465952,114.09428 L 93.193592,114.54126 L 92.096012,118.12205 L 95.797242,122.67874 L 98.970782,125.36433 L 97.303302,126.25828 L 90.671902,125.89326 L 79.198232,125.89326 L 79.076552,125.52698 L 77.001832,124.75346 L 84.080212,119.54617 L 83.185022,114.74488 L 84.324812,111.73399 L 83.713942,104.57365 z M 91.973092,102.25434 L 92.583972,103.71943 L 92.583972,109.70025 L 98.320182,110.22917 L 100.9648,108.56045 L 103.81304,106.60865 L 99.540682,101.97001 L 98.157532,101.56277 L 91.973092,102.25434 z M 140.58564,97.90127 L 139.93504,96.60007 L 142.90497,96.19283 L 148.76409,96.8844 L 153.03521,96.27353 L 159.13894,98.14587 L 156.98228,96.92537 L 151.48942,103.39413 L 152.34364,105.18453 L 151.04243,111.24604 L 151.73402,116.4943 L 150.51351,116.37262 L 149.1701,121.98716 L 147.2183,124.67151 L 137.53503,126.46191 L 133.79159,127.2764 L 130.04815,126.21855 L 125.12643,119.62687 L 122.52153,115.84371 L 123.49868,112.91476 L 122.96976,107.66525 L 124.71918,103.88208 L 117.4769,98.51214 L 116.74435,97.25068 L 120.81309,98.02295 L 131.79757,98.02295 L 135.50003,96.51812 L 138.10492,96.9651 L 138.38925,96.19283 L 135.58198,100.74952 L 132.57108,103.43511 L 132.57108,106.2821 L 134.36148,114.82683 L 136.92415,121.86549 L 140.70856,121.17267 L 146.6484,114.98948 L 146.93273,113.52438 L 146.93273,108.19417 L 146.16045,104.49296 L 145.14233,102.74354 L 140.58564,97.90127 z M 158.60382,97.90127 L 158.88814,96.47715 L 161.57373,97.08802 L 168.24612,97.90127 L 170.64614,96.07115 L 176.58597,98.34949 L 181.14266,97.7796 L 184.19453,98.30851 L 188.58857,96.68077 L 194.24408,97.82057 L 193.83683,101.52304 L 193.47055,103.7604 L 193.47055,109.21229 L 189.44279,104.61463 L 188.18132,102.82423 L 185.90298,101.23746 L 178.29566,101.23746 L 175.20283,101.44109 L 173.90162,107.66525 L 181.06195,108.60142 L 184.92707,103.88208 L 184.92707,108.19417 L 186.14757,111.40869 L 184.92707,116.94253 L 180.81737,114.33763 L 175.20283,114.82683 L 175.20283,119.30157 L 179.06795,119.91244 L 182.32343,119.91244 L 186.1066,120.23774 L 190.41993,117.26782 L 193.83683,112.38584 L 193.95851,112.62918 L 193.95851,117.34853 L 195.34165,126.70651 L 190.74523,125.07875 L 189.11749,125.52698 L 186.96083,124.75346 L 180.41136,125.89326 L 173.86065,125.36433 L 172.51848,126.25828 L 167.35092,125.89326 L 157.58694,125.89326 L 163.24244,121.66186 L 165.31717,118.12205 L 165.56053,117.79675 L 165.56053,109.78095 L 164.78825,104.49296 L 163.56775,102.74354 L 158.60382,97.90127 z M 212.3206,97.90127 L 213.09411,97.73862 L 217.12189,96.8844 L 221.59663,97.29165 L 222.9388,97.8603 L 230.83168,96.35548 L 231.19796,103.63748 L 232.94738,105.26523 L 233.23295,109.53759 L 235.02334,104.9809 L 237.50407,100.17961 L 238.72456,96.60007 L 245.39695,96.11088 L 247.43194,98.43019 L 254.30794,98.43019 L 256.66699,97.73862 L 258.98631,96.47715 L 254.71395,99.93627 L 252.1103,104.53268 L 250.52353,107.21827 L 251.37775,115.31478 L 251.62235,119.62687 L 254.4706,123.49199 L 258.66101,125.24141 L 253.61637,126.3812 L 247.79821,125.1607 L 244.5837,124.75346 L 239.17278,125.44503 L 235.02334,124.83541 L 243.11861,120.31845 L 241.61378,118.40638 L 242.50897,114.86656 L 243.3632,113.24006 L 242.06076,106.56767 L 242.75233,103.02786 L 241.32945,102.49894 L 240.27161,107.05563 L 240.27161,110.43279 L 237.30168,116.29068 L 236.89444,122.10884 L 236.48719,126.7872 L 231.32088,124.95709 L 227.69912,119.22087 L 227.94371,116.77988 L 226.03164,112.42557 L 226.84489,109.21229 L 223.75329,103.88208 L 223.63037,102.62062 L 223.63037,106.64838 L 225.01477,114.33763 L 223.99665,116.45333 L 224.1593,118.81362 L 223.91594,118.9353 L 229.69313,125.89326 L 224.4039,125.36433 L 223.34605,126.25828 L 219.5219,125.89326 L 211.30372,126.3812 L 216.95923,121.62089 L 219.03396,118.0401 L 219.27731,117.7148 L 219.27731,109.74122 L 218.50503,104.49296 L 217.28454,102.74354 L 212.3206,97.90127 z M 259.04467,97.90127 L 259.329,96.47715 L 262.01459,97.08802 L 268.68697,97.90127 L 271.08699,96.07115 L 277.02683,98.34949 L 281.58352,97.7796 L 284.63538,98.30851 L 289.02942,96.68077 L 294.68493,97.82057 L 294.27768,101.52304 L 293.91141,103.7604 L 293.91141,109.21229 L 289.88364,104.61463 L 288.62218,102.82423 L 286.34383,101.23746 L 278.73652,101.23746 L 275.64368,101.44109 L 274.34248,107.66525 L 281.50281,108.60142 L 285.36792,103.88208 L 285.36792,108.19417 L 286.58842,111.40869 L 285.36792,116.94253 L 281.25822,114.33763 L 275.64368,114.82683 L 275.64368,119.30157 L 279.5088,119.91244 L 282.76428,119.91244 L 286.54745,120.23774 L 290.86078,117.26782 L 294.27768,112.38584 L 294.39936,112.62918 L 294.39936,117.34853 L 295.78251,126.70651 L 291.18609,125.07875 L 289.55835,125.52698 L 287.40168,124.75346 L 280.85222,125.89326 L 274.30151,125.36433 L 272.95933,126.25828 L 267.79177,125.89326 L 258.02779,125.89326 L 263.6833,121.66186 L 265.75802,118.12205 L 266.00138,117.79675 L 266.00138,109.78095 L 265.2291,104.49296 L 264.0086,102.74354 L 259.04467,97.90127 z M 297.31093,97.90127 L 295.84583,96.27353 L 304.18693,98.14587 L 302.68087,96.55909 L 308.82433,96.55909 L 312.07981,96.76272 L 319.84977,96.76272 L 326.80773,97.65792 L 326.80773,100.95313 L 327.98725,104.37004 L 326.76676,110.30987 L 324.36673,107.01466 L 322.12812,103.27246 L 317.69435,101.44109 L 315.94493,108.47974 L 316.92083,110.96171 L 316.3919,116.04733 L 318.14132,119.09795 L 322.61731,125.40406 L 323.59321,125.81131 L 319.32085,126.58483 L 310.94002,126.58483 L 305.04115,125.07875 L 302.68087,125.52698 L 300.15916,124.75346 L 303.90136,122.43414 L 307.07491,118.65097 L 308.8653,111.28701 L 306.95323,104.32906 L 308.70265,102.01098 L 303.82065,101.23746 L 297.67719,111.44967 L 296.782,107.13632 L 297.92055,104.45198 L 297.31093,97.90127 z M 336.7505,97.90127 L 335.2854,96.27353 L 341.95779,98.14587 L 342.36503,96.55909 L 357.86523,96.55909 L 357.5809,96.72175 L 353.87843,102.86521 L 354.164,104.7363 L 356.84835,110.35084 L 359.77854,114.46055 L 360.34719,118.32567 L 365.71838,123.89924 L 369.05457,126.7872 L 365.47378,124.95709 L 357.3363,125.56671 L 345.61928,125.56671 L 346.23015,125.81131 L 346.75907,124.50886 L 351.31576,119.95217 L 350.46154,118.77264 L 344.88673,118.77264 L 340.29032,117.26782 L 339.67944,119.66784 L 339.31317,119.66784 L 344.39878,125.89326 L 339.43609,125.36433 L 338.41798,126.25828 L 334.91913,125.89326 L 327.06722,126.3812 L 331.99019,121.62089 L 333.53598,118.0401 L 333.86129,117.75578 L 337.72639,111.00144 L 338.9469,106.48573 L 341.63249,103.63748 L 336.7505,97.90127 z M 347.73497,112.87378 L 348.10125,114.29791 L 347.694,109.94359 L 345.25301,106.11946 L 343.17828,108.92672 L 341.30718,112.18221 L 347.73497,112.87378 z M 395.88689,120.80764 L 394.62542,119.46423 L 398.08328,116.65696 L 400.11704,115.35575 L 403.29057,109.94359 L 403.98216,117.95939 L 402.80263,117.95939 L 402.80263,125.11973 L 392.02177,125.11973 L 387.66747,126.29926 L 383.68067,126.7872 L 376.76493,124.95709 L 371.2311,125.56671 L 370.74315,125.56671 L 367.44794,125.89326 L 371.5564,123.49199 L 374.52632,119.62687 L 374.64924,118.44735 L 374.64924,114.86656 L 376.03239,104.85798 L 370.5805,98.79647 L 368.4648,96.9651 L 368.42383,96.19283 L 375.58416,97.33138 L 382.05293,96.80245 L 383.6397,97.69765 L 392.18442,97.69765 L 384.65781,103.43511 L 385.30842,103.67846 L 384.57587,104.32906 L 384.82046,104.32906 L 384.82046,115.19311 L 384.04695,120.76666 L 389.17353,121.33657 L 395.88689,120.80764 z"
       id="path3257" />
  </g>
</svg>
