<svg xmlns="http://www.w3.org/2000/svg" width="520" height="31.665" viewBox="0 0 137.583 8.378"><g aria-label="TRUEMETAL.LV" style="font-size:10.5833px;letter-spacing:0;word-spacing:0;stroke-width:.25"><path d="m33.201 11.47-.402-.254 1.386.275 1.037-.275.318-.106h.36l.56.19h4.816l-.487 1.725.508 1.143.043.434-.667-.73-1.376-1.048-.942-.148.148.783-.476.614.466 1.154-.148 1.397 1.058 1.936.391-.02-1.502.18-1.874-.191-.36.37-.38-.296-1.662.18.614-.678 1.429-1.164-.381-1.799.275-.37v-1.64l-.201-.7-.858.265-.994.752-.614 1.174-.117-.91.16-1.333zM43.17 13.205l-.402-.254-.984-1.026-.254-.71.17-.105h1.735l1.027.19h2.804l.381-.158 1.62.296h.941l.932 1.778-.307.497-1.905 1.567.931.275.519 1.968 1.63.89h-1.419l-.666.539-1.736-.413.222-.053-1.534-2.815-.381.37-1.26-.296.19 1.313.604.751 1.429.878-1.63-.137-.159.212h-1.291l-.519-.212-2.402.264.55-1.068 1.25-1.016-.117-1.027.159-1.44zm2.54-.783-.232-.01v2.211l1.81-.529.476.106.476-.878-1.111-.424.18-.137zM57.955 11.47l-.328.031 2.128-.137.317-.339 1.365.19 1.133.276-.805.698-1.11.646.137.19-.233.921.127 2.307v1.482l-1.672.889-.466.444-.91-.264h-.963l-2.022-.127.096-.19-1.037-2.392-.477-.614.466-1.43-.148-1.385-1.651-.752-.392-.804 2.022.18 1.926-.19-.159.37.17-.297 1.989.18-.751.752-.519.878-.381 1.958.275.942.92 1.661.572-.127 1.651-.211.106-1.556.297-1.98-.117-.687-.518-1.016z" style="-inkscape-font-specification:a_LatinoTitulBr;stroke:#ccc" transform="translate(-20.183 -10.815)"/><path d="m62.644 11.47-.106-.053.434-.424 1.587.328h1.514l1.937-.306 1.344.508 1.99-.53.147.117.265-.074-.106 1.46.445 1.694-.043.042-1.714-1.196-.212-.328-1.47-.275-1.63-.106h-.286l-.233 1.82h1.81l1.587-.815-.487 1.535.508 1.08.042.38-1.375-.91-1.99.413.159 1.492 1.196-.17 2.17-.21 1.058-1.387.412-.212v-.074l.286 1.746v1.514l-.328.37-.455-.296-2.064.18h-1.524l-1.64-.096-1.725-.137-.19.212H62.57l.063-.424 1.789-1.249-.244-1.704.297-1.799-.117-.603-.582-1.016zM72.54 11.47l.052-.37 1.185.19 1.366.106.772-.16 1.048.085.984 1.61-.296.422.688 1.313-.095-.572.582-1.312v-1.63l.434.201 2.106-.413.36.403.825-.17 1.947.244-.031-.223-1.98 1.853.276 1.121v3.038l1.81 1.09.126.243-.9-.074-1.11.466-1.376-.138-.413-.338-2.476.19 1.248-.688.921-1.058-.339-.794.138-.233-.233-.614.127-2.508-.137 1.418-1.016 1.556.243 1.09-.18.402-.19.53-.54 1.195-1.133-.148-.158-1.217-.688-.72v-1.672l-.593-1.63-.571-.36-.085-.687.286 2.042v1.831l-.201.477h-.106l1.206 1.248.53.72-1.461-.138-1.609-.137-.148.212h-1.27l.064-.424 1.788-1.27-.243-1.704.296-1.778-.116-.603-.582-1.016z" style="-inkscape-font-specification:a_LatinoTitulBr;stroke:#ccc" transform="translate(-20.183 -10.815)"/><path d="m84.7 11.47-.106-.053.433-.424 1.588.328h1.513l1.937-.306 1.344.508 1.99-.53.148.117.265-.074-.106 1.46.444 1.694-.042.042-1.715-1.196-.211-.328-1.471-.275-1.63-.106h-.286l-.233 1.82h1.81l1.588-.815-.487 1.535.508 1.08.042.38-1.376-.91-1.99.413.16 1.492 1.195-.17 2.17-.21 1.058-1.387.413-.212v-.074l.286 1.746v1.514l-.328.37-.456-.296-2.063.18h-1.524l-1.64-.096-1.726-.137-.19.212h-1.387l.064-.424 1.788-1.249-.243-1.704.296-1.799-.116-.603-.582-1.016zM94.648 11.47l-.402-.254 1.386.275 1.037-.275.318-.106h.36l.56.19h4.816l-.487 1.725.508 1.143.042.434-.667-.73-1.375-1.048-.942-.148.148.783-.476.614.465 1.154-.148 1.397 1.058 1.936.392-.02-1.503.18-1.873-.191-.36.37-.38-.296-1.662.18.613-.678 1.43-1.164-.382-1.799.275-.37v-1.64l-.2-.7-.858.265-.995.752-.614 1.174-.116-.91.159-1.333zM104.914 11.47l-.403-.254.942.275.381-.275.392-.106h2.423l1.567.19-1.016 1.408.91 1.386v.89l.836.846.582.857-.01.148 1.439 2.106-.688-.148-1.63-.17h-2.392l-.667-.21-.476-.043.498-.148.857-1.207.074-.328-.688-.19-2.265.37-.307.212 1.07 1.111.454.635-1.354-.138-1.535-.137-.127.212h-1.196v-.424l1.524-1.27.339-1.587 1.005-1.64.223-.53.476-.984zm3.249 3.714.02-.031-.74-1.535-.476-.423-.678 1.862.19.466zM120.302 17.428l.105-.254.508-1.111.424-.339.772-.984.127 1.492.276 1.133-.487 1.217-.879.18-1.069-.329-.73.096-1.503.412.106-.148-1.429-.17H115l-1.767-.21.952-1.123.35-.063v-.783l.285-1.545v-2.054l-.677-.105-1.376-1.567 1.969.18 1.005-.095h2.022l.677-.138.646.212-1.397 1.344-.55.19.253 1.503-.243.784.296 1.206-.116.857 1.418-.285zM124.09 16.899l-.211-.37 1.344.973-1.164 1.291-.89-1.344zM132.843 17.428l.106-.254.508-1.111.423-.339.773-.984.127 1.492.275 1.133-.487 1.217-.878.18-1.07-.329-.73.096-1.502.412.105-.148-1.428-.17h-1.524l-1.768-.21.953-1.123.349-.063v-.783l.286-1.545v-2.054l-.678-.105-1.375-1.567 1.968.18 1.005-.095h2.022l.677-.138.646.212-1.397 1.344-.55.19.253 1.503-.243.784.296 1.206-.116.857 1.418-.285zM139.045 17.66l.116-.105-.265-.773-1.672-2.074-.19-.698-.233-1.07-1.64-1.407-.297-.434.307.201h3.44l1.196-.148 1.375.18-1.047.71-.73.73.455 1.777.19-.095 1.143 1.63-.201-.635 1.058-1.471.487-1.429-1.45-.667-.328-.772 2.201.18 2.138-.19-.148.37.201-.297-1.153 1.535-.55 1.08-.244 1.354-.804.857.127.55-.477.974 1.048 1.027-1.143.264-1.44-.285-1.153-.074-.815.232-.487-.285z" style="-inkscape-font-specification:a_LatinoTitulBr;stroke:#ccc" transform="translate(-20.183 -10.815)"/></g></svg>